# xmcd
#
# Track frame offsets:
#	150
#	7914
#	15212
#	21096
#	24724
#	30336
#	36805
#	41471
#	48469
#	53898
#	59962
#	69501
#	75325
#	77577
#
# Disc length: 1122 seconds
#
# Revision: 0
# Processed by: cddbd v1.5.2PL0 Copyright (c) Steve Scherf et al.
# Submitted via: EasyCDDAExtractor 16.0.6.1
#
DISCID=9d04600e
DTITLE=Κλωναρίδης Ηλίας - Παραδ. χοροί κ τραγούδια 1 Μοριάς-Ρούμελη
DYEAR=2006
DGENRE=Παραδοσιακή
TTITLE0=Παπαλάμπραινα [παραδοσιακό]
TTITLE1=Πιάστε λεβέντες τον χορό [παραδοσιακό]
TTITLE2=Είμαστε ορκισμένα (Κυρα δασκάλα)[παραδοσιακό]
TTITLE3=Βρύση μου μαλαματένια [παραδοσιακό]
TTITLE4=Μήλο μου κόκκινο [παραδοσιακό]
TTITLE5=Μελαχροινό μου [παραδοσιακό]
TTITLE6=Της τριανταφυλλιάς τα φύλλα [παραδοσιακό]
TTITLE7=Όλα τα πουλάκια [παραδοσιακό]
TTITLE8=Βλέπεις εκείνο το βουνό [παραδοσιακό]
TTITLE9=Γιε μου ένας αητός [παραδοσιακό]
TTITLE10=Ο Λιούλιος [παραδοσιακό]
TTITLE11=Διαμάντι δαχτυλίδι [παραδοσιακό]
TTITLE12=Πέρασα την πόρτα σου [παραδοσιακό]
TTITLE13=Αυτά τα μάτια τα γλυκά [παραδοσιακό]
EXTD=
EXTT0=
EXTT1=
EXTT2=
EXTT3=
EXTT4=
EXTT5=
EXTT6=
EXTT7=
EXTT8=
EXTT9=
EXTT10=
EXTT11=
EXTT12=
EXTT13=
PLAYORDER=
